<svg xmlns="http://www.w3.org/2000/svg" viewBox="0 0 35.59 32">
    <rect width="35.59" height="32" fill="none"/>
    <g>
        <g>
            <path d="m32.26,1H3.34c-1.23,0-2.22.9-2.22,2v26c0,1.1,1,2,2.22,2h28.92c1.23,0,2.22-.9,2.22-2V3c0-1.1-1-2-2.22-2Z" fill="none" stroke="#adafaf" stroke-linecap="round" stroke-linejoin="round" stroke-width="1.3"/>
            <path d="m7.79,23l5.13-6.15c.19-.23.44-.42.71-.56.28-.14.59-.22.91-.24.32-.02.64.02.94.12.3.1.57.26.8.46l1.52,1.37,4.89-5.87c.21-.25.48-.45.78-.59.31-.14.65-.21.99-.21s.69.07.99.21c.31.14.58.34.78.59l3.96,4.75" fill="none" stroke="#adafaf" stroke-linecap="round" stroke-linejoin="round" stroke-width="1.3"/>
            <path d="m9.45,11c1.54,0,2.78-1.12,2.78-2.5s-1.24-2.5-2.78-2.5-2.78,1.12-2.78,2.5,1.25,2.5,2.78,2.5Z" fill="none" stroke="#adafaf" stroke-linecap="round" stroke-linejoin="round" stroke-width="1.3"/>
            <path d="m1.11,23h33.37" fill="none" stroke="#adafaf" stroke-linecap="round" stroke-linejoin="round" stroke-width="1.3"/>
        </g>
    </g>
</svg>
