<?xml version="1.0" encoding="UTF-8"?>
<svg data-name="Vrstva 1" xmlns="http://www.w3.org/2000/svg" viewBox="0 0 1982.09 1982.09">
  <path d="m1966.86,15.24c-20.32-20.32-53.25-20.32-73.57,0L15.24,1893.29c-20.32,20.32-20.32,53.25,0,73.57,20.32,20.32,53.25,20.32,73.57,0L1966.86,88.81c20.32-20.32,20.32-53.25,0-73.57Z" fill="currentColor"/>
  <path d="m186.78,1603.82h47.21l164.08-164.08h-158.05l441.04-437.77,77.39,77.39,701.08-701.08H186.78c-62.61,0-113.37,50.76-113.37,113.38v998.78c0,62.62,50.76,113.38,113.37,113.38Zm304.43-1013.81c70.67,0,127.97,57.29,127.97,127.96s-57.3,127.96-127.97,127.96-127.95-57.29-127.95-127.96,57.28-127.96,127.95-127.96Z" fill="currentColor"/>
  <path d="m1795.31,378.28h-47.21l-533.75,533.75,527.72,527.71H686.63l-164.08,164.08h1272.76c62.62,0,113.37-50.76,113.37-113.38V491.66c0-62.62-50.75-113.38-113.37-113.38Z" fill="currentColor"/>
</svg>
