<svg width="147" height="44" viewBox="0 0 147 44" fill="none" xmlns="http://www.w3.org/2000/svg">
<g clip-path="url(#clip0_12018_69680)">
<path d="M45.8141 9.78482V7.63522H41.6861V22.7089H45.8141V13.7401C46.8478 12.3908 50.2345 11.4185 52.0299 11.359L51.683 7.31774C49.3844 7.43679 47.1402 8.23711 45.8141 9.78482Z" fill="white"/>
<path d="M64.203 9.01105C62.9381 7.74775 61.4011 7.3509 59.871 7.3509C55.5118 7.3509 52.2067 10.6778 52.2067 15.149C52.2067 19.6202 55.505 23 59.837 23C61.5167 23 63.0469 22.4841 64.1962 21.3398V22.7156H68.3242V7.63531H64.1962V9.01105H64.203ZM64.203 17.2655C63.4957 18.3569 62.0812 19.0447 60.5171 19.0447C58.1572 19.0447 56.3891 17.3846 56.3891 15.1754C56.3891 12.9663 58.1844 11.3062 60.5443 11.3062C62.0744 11.3062 63.4889 11.9676 64.1962 13.0258V17.2655H64.203Z" fill="white"/>
<path d="M78.558 18.866C76.2866 18.866 74.5796 17.3183 74.5796 15.1952C74.5796 13.0456 76.3206 11.4714 78.5852 11.4714C79.9997 11.4714 81.2102 12.0998 81.9175 13.1911L84.9846 10.2676C83.5088 8.46198 81.0946 7.34419 78.5036 7.34419C73.9948 7.34419 70.2544 10.7571 70.2544 15.2283C70.2544 19.6134 73.8792 22.9933 78.4492 22.9933C81.2782 22.9933 83.9577 21.6771 85.549 19.6134L82.2779 16.862C81.5027 18.1253 80.1493 18.866 78.558 18.866Z" fill="white"/>
<path d="M96.4974 13.2838L102.536 7.64188L102.543 7.63526H102.536H97.327L91.1997 13.4226V5.98834C91.1793 3.78582 89.3431 2 87.0717 2V22.7089H91.1997V18.2378L93.4711 16.1146L98.0411 22.7089H103.019L96.4974 13.2838Z" fill="white"/>
<path d="M114.743 17.7482C113.743 18.6081 113.002 19.038 112.002 19.038C110.853 19.038 110.057 18.4361 110.057 17.2059V11.5045C107.786 11.5045 105.943 13.2903 105.929 15.4994V17.5233C105.929 20.8767 108.316 22.9999 112.002 22.9999C114.239 22.9999 115.776 22.1995 117.245 20.7643L114.743 17.7482Z" fill="white"/>
<path d="M125.732 7.3509C120.985 7.3509 117.449 10.7043 117.449 15.1754C117.449 19.6466 120.985 23 125.732 23C130.479 23 134.015 19.6466 134.015 15.1754C134.015 10.7043 130.472 7.3509 125.732 7.3509ZM125.732 19.0381C123.406 19.0381 121.638 17.378 121.638 15.1688C121.638 12.9597 123.406 11.2996 125.732 11.2996C128.058 11.2996 129.826 12.9597 129.826 15.1688C129.826 17.378 128.058 19.0381 125.732 19.0381Z" fill="white"/>
<path d="M145.888 7.31774C143.59 7.43018 141.352 8.23711 140.026 9.78482V7.63522H135.898V22.7089H140.026V13.7401C141.06 12.3908 144.447 11.4185 146.242 11.359L145.888 7.31774Z" fill="white"/>
<path d="M37.6608 17.7482C36.6611 18.6081 35.9198 19.038 34.9201 19.038C33.7708 19.038 32.9751 18.4361 32.9751 17.2059V11.5045C30.7037 11.5045 28.8608 13.2903 28.8472 15.4994V17.5233C28.8472 20.8767 31.2342 22.9999 34.9201 22.9999C37.1575 22.9999 38.6945 22.1995 40.1634 20.7643L37.6608 17.7482Z" fill="white"/>
<path d="M32.9752 7.62862V6.04122C32.9616 3.83871 31.1187 2.05289 28.8473 2.05289V7.62201H25.447V11.4913H28.8473H32.9752H39.1638V7.62862H32.9752Z" fill="white"/>
<path d="M110.057 7.63522V5.82956C109.921 3.73287 108.133 2.0661 105.943 2.0661H105.95H105.929V7.63522H102.529V11.5045H105.929H110.057H116.246V7.63522H110.057Z" fill="white"/>
<path d="M11.1054 2.06609V11.9278H21.2451C21.2451 6.47773 16.7023 2.06609 11.1054 2.06609Z" fill="#50C6CE"/>
<path d="M0 2.06609V11.9278H10.1397C10.1397 6.47773 5.60371 2.06609 0 2.06609Z" fill="#50C6CE"/>
<path d="M10.1397 12.8604V22.7221H0C0 17.2721 4.54281 12.8604 10.1397 12.8604Z" fill="#50C6CE"/>
<path d="M21.2383 12.8604C21.2383 12.8604 21.2451 12.8604 21.2383 12.8604V22.7221H11.0986C11.0986 17.2721 15.6414 12.8604 21.2383 12.8604Z" fill="#50C6CE"/>
<path d="M82.936 36.212C83.52 35.612 83.812 34.82 83.812 33.836C83.812 32.852 83.52 32.064 82.936 31.472C82.352 30.872 81.604 30.572 80.692 30.572C79.788 30.572 79.04 30.872 78.448 31.472C77.864 32.064 77.572 32.852 77.572 33.836C77.572 34.82 77.868 35.612 78.46 36.212C79.052 36.812 79.8 37.112 80.704 37.112C81.608 37.112 82.352 36.812 82.936 36.212ZM80.704 38.084C79.512 38.084 78.508 37.684 77.692 36.884C76.876 36.076 76.468 35.06 76.468 33.836C76.468 32.604 76.876 31.592 77.692 30.8C78.508 30 79.512 29.6 80.704 29.6C81.896 29.6 82.896 30 83.704 30.8C84.52 31.592 84.928 32.604 84.928 33.836C84.928 35.068 84.52 36.084 83.704 36.884C82.896 37.684 81.896 38.084 80.704 38.084ZM89.5987 37.172C90.2147 37.172 90.7387 36.944 91.1707 36.488C91.6107 36.024 91.8307 35.42 91.8307 34.676C91.8307 33.924 91.6107 33.332 91.1707 32.9C90.7387 32.468 90.2147 32.252 89.5987 32.252C88.9907 32.252 88.4667 32.476 88.0267 32.924C87.5947 33.372 87.3787 33.968 87.3787 34.712C87.3787 35.448 87.5947 36.044 88.0267 36.5C88.4667 36.948 88.9907 37.172 89.5987 37.172ZM89.8147 31.304C90.7187 31.304 91.4667 31.616 92.0587 32.24C92.6587 32.856 92.9587 33.668 92.9587 34.676C92.9587 35.676 92.6587 36.5 92.0587 37.148C91.4587 37.788 90.7107 38.108 89.8147 38.108C89.2547 38.108 88.7627 37.976 88.3387 37.712C87.9227 37.44 87.6027 37.088 87.3787 36.656V41.12H86.2867V31.412H87.3787V32.732C87.6027 32.308 87.9227 31.964 88.3387 31.7C88.7627 31.436 89.2547 31.304 89.8147 31.304ZM94.0858 33.272C94.0858 32.72 94.3138 32.256 94.7698 31.88C95.2338 31.496 95.8298 31.304 96.5578 31.304C97.2938 31.304 97.8698 31.492 98.2858 31.868C98.7018 32.236 98.9298 32.744 98.9698 33.392H97.8418C97.8258 33.024 97.7018 32.728 97.4698 32.504C97.2378 32.28 96.9138 32.168 96.4978 32.168C96.0898 32.168 95.7658 32.268 95.5258 32.468C95.2938 32.66 95.1778 32.912 95.1778 33.224C95.1778 33.528 95.3098 33.764 95.5738 33.932C95.8458 34.1 96.1698 34.224 96.5458 34.304C96.9298 34.376 97.3098 34.464 97.6858 34.568C98.0698 34.664 98.3938 34.852 98.6578 35.132C98.9298 35.404 99.0658 35.796 99.0658 36.308C99.0658 36.812 98.8338 37.24 98.3698 37.592C97.9138 37.936 97.3178 38.108 96.5818 38.108C95.8458 38.108 95.2538 37.924 94.8058 37.556C94.3658 37.188 94.1258 36.68 94.0858 36.032H95.2138C95.2298 36.4 95.3578 36.696 95.5978 36.92C95.8458 37.136 96.1818 37.244 96.6058 37.244C97.0378 37.244 97.3738 37.152 97.6138 36.968C97.8618 36.784 97.9858 36.552 97.9858 36.272C97.9858 35.984 97.8898 35.756 97.6978 35.588C97.5058 35.42 97.2658 35.304 96.9778 35.24C96.6898 35.176 96.3738 35.1 96.0298 35.012C95.6938 34.924 95.3818 34.832 95.0938 34.736C94.8058 34.632 94.5658 34.456 94.3738 34.208C94.1818 33.96 94.0858 33.648 94.0858 33.272ZM105.128 31.904C105.128 32.208 105.212 32.46 105.38 32.66C105.548 32.86 105.764 33.008 106.028 33.104C106.292 33.2 106.584 33.284 106.904 33.356C107.232 33.428 107.556 33.512 107.876 33.608C108.204 33.696 108.5 33.812 108.764 33.956C109.028 34.1 109.244 34.316 109.412 34.604C109.58 34.892 109.664 35.248 109.664 35.672C109.664 36.32 109.416 36.884 108.92 37.364C108.424 37.844 107.752 38.084 106.904 38.084C106.064 38.084 105.38 37.892 104.852 37.508C104.324 37.116 104.06 36.588 104.06 35.924H105.224C105.256 36.3 105.404 36.604 105.668 36.836C105.94 37.068 106.34 37.184 106.868 37.184C107.396 37.184 107.816 37.048 108.128 36.776C108.44 36.504 108.596 36.188 108.596 35.828C108.596 35.46 108.512 35.18 108.344 34.988C108.176 34.788 107.96 34.64 107.696 34.544C107.432 34.448 107.136 34.368 106.808 34.304C106.488 34.232 106.164 34.148 105.836 34.052C105.516 33.956 105.224 33.836 104.96 33.692C104.696 33.54 104.48 33.32 104.312 33.032C104.144 32.736 104.06 32.372 104.06 31.94C104.06 31.236 104.308 30.672 104.804 30.248C105.308 29.816 105.96 29.6 106.76 29.6C107.568 29.6 108.208 29.788 108.68 30.164C109.16 30.532 109.436 31.044 109.508 31.7H108.296C108.264 31.372 108.108 31.092 107.828 30.86C107.556 30.628 107.184 30.512 106.712 30.512C106.248 30.512 105.868 30.632 105.572 30.872C105.276 31.104 105.128 31.448 105.128 31.904ZM114.043 38.108C113.099 38.108 112.331 37.796 111.739 37.172C111.147 36.548 110.851 35.724 110.851 34.7C110.851 33.676 111.151 32.856 111.751 32.24C112.351 31.616 113.127 31.304 114.079 31.304C115.039 31.304 115.807 31.6 116.383 32.192C116.967 32.776 117.259 33.524 117.259 34.436C117.259 34.668 117.243 34.884 117.211 35.084H111.967C111.999 35.74 112.203 36.26 112.579 36.644C112.963 37.02 113.451 37.208 114.043 37.208C114.491 37.208 114.867 37.108 115.171 36.908C115.483 36.708 115.711 36.444 115.855 36.116H117.031C116.823 36.692 116.463 37.168 115.951 37.544C115.447 37.92 114.811 38.108 114.043 38.108ZM116.119 34.292C116.111 33.66 115.911 33.156 115.519 32.78C115.127 32.396 114.639 32.204 114.055 32.204C113.479 32.204 112.999 32.392 112.615 32.768C112.231 33.136 112.019 33.644 111.979 34.292H116.119ZM119.711 31.412V32.528C120.103 31.712 120.771 31.304 121.715 31.304V32.444H121.427C120.867 32.444 120.439 32.592 120.143 32.888C119.855 33.176 119.711 33.68 119.711 34.4V38H118.619V31.412H119.711ZM122.281 31.412H123.445L125.461 36.98L127.489 31.412H128.665L126.085 38H124.849L122.281 31.412ZM130.785 30.14C130.641 30.284 130.465 30.356 130.257 30.356C130.049 30.356 129.873 30.284 129.729 30.14C129.593 29.996 129.525 29.82 129.525 29.612C129.525 29.404 129.597 29.228 129.741 29.084C129.885 28.94 130.057 28.868 130.257 28.868C130.465 28.868 130.641 28.94 130.785 29.084C130.929 29.228 131.001 29.404 131.001 29.612C131.001 29.82 130.929 29.996 130.785 30.14ZM129.705 38V31.412H130.797V38H129.705ZM135.359 38.108C134.415 38.108 133.647 37.796 133.055 37.172C132.463 36.548 132.167 35.728 132.167 34.712C132.167 33.688 132.463 32.864 133.055 32.24C133.647 31.616 134.415 31.304 135.359 31.304C136.151 31.304 136.795 31.488 137.291 31.856C137.795 32.224 138.147 32.748 138.347 33.428H137.171C137.043 33.044 136.823 32.744 136.511 32.528C136.199 32.312 135.815 32.204 135.359 32.204C134.735 32.204 134.231 32.424 133.847 32.864C133.471 33.296 133.283 33.912 133.283 34.712C133.283 35.504 133.471 36.12 133.847 36.56C134.231 36.992 134.735 37.208 135.359 37.208C136.295 37.208 136.899 36.8 137.171 35.984H138.347C138.147 36.632 137.791 37.148 137.279 37.532C136.775 37.916 136.135 38.108 135.359 38.108ZM142.555 38.108C141.611 38.108 140.843 37.796 140.251 37.172C139.659 36.548 139.363 35.724 139.363 34.7C139.363 33.676 139.663 32.856 140.263 32.24C140.863 31.616 141.639 31.304 142.591 31.304C143.551 31.304 144.319 31.6 144.895 32.192C145.479 32.776 145.771 33.524 145.771 34.436C145.771 34.668 145.755 34.884 145.723 35.084H140.479C140.511 35.74 140.715 36.26 141.091 36.644C141.475 37.02 141.963 37.208 142.555 37.208C143.003 37.208 143.379 37.108 143.683 36.908C143.995 36.708 144.223 36.444 144.367 36.116H145.543C145.335 36.692 144.975 37.168 144.463 37.544C143.959 37.92 143.323 38.108 142.555 38.108ZM144.631 34.292C144.623 33.66 144.423 33.156 144.031 32.78C143.639 32.396 143.151 32.204 142.567 32.204C141.991 32.204 141.511 32.392 141.127 32.768C140.743 33.136 140.531 33.644 140.491 34.292H144.631Z" fill="#50C6CE"/>
</g>
<defs>
<clipPath id="clip0_12018_69680">
<rect width="147" height="44" fill="white"/>
</clipPath>
</defs>
</svg>
