<svg width="105" height="24" viewBox="0 0 105 24" fill="none" xmlns="http://www.w3.org/2000/svg">
<path d="M0 3C0 1.34315 1.34315 0 3 0H21C22.6569 0 24 1.34315 24 3V21C24 22.6569 22.6569 24 21 24H3C1.34315 24 0 22.6569 0 21V3Z" fill="white"/>
<g clip-path="url(#clip0_14365_181577)">
<path d="M12.3636 4C12.3629 4 12.3622 4 12.3614 4V11.6381H20C19.9993 7.41966 16.581 4 12.3636 4Z" fill="#020202"/>
<path d="M4.0022 4C4.00147 4 4.00073 4 4 4V11.6381H11.6386C11.6378 7.41966 8.2196 4 4.0022 4Z" fill="#020202"/>
<path d="M11.6364 12.3619C11.6371 12.3619 11.6378 12.3619 11.6386 12.3619V20H4C4.00073 15.7816 7.41898 12.3619 11.6364 12.3619Z" fill="#020202"/>
<path d="M19.9978 12.3619C19.9985 12.3619 19.9993 12.3619 20 12.3619V20H12.3614C12.3622 15.7816 15.7804 12.3619 19.9978 12.3619Z" fill="#020202"/>
</g>
<path d="M44.3086 10.7046V9.40549H41.814V18.5149H44.3086V13.0948C44.9333 12.2794 46.98 11.6918 48.065 11.6559L47.8554 9.21362C46.4663 9.28557 45.11 9.76922 44.3086 10.7046Z" fill="white"/>
<path d="M55.4215 10.2369C54.6571 9.47347 53.7283 9.23364 52.8036 9.23364C50.1692 9.23364 48.1718 11.2442 48.1718 13.9463C48.1718 16.6483 50.1651 18.6908 52.783 18.6908C53.7981 18.6908 54.7229 18.3791 55.4174 17.6876V18.519H57.9121V9.40552H55.4174V10.2369H55.4215ZM55.4215 15.2253C54.9941 15.8849 54.1393 16.3006 53.194 16.3006C51.7679 16.3006 50.6994 15.2973 50.6994 13.9622C50.6994 12.6272 51.7843 11.6239 53.2104 11.6239C54.1352 11.6239 54.99 12.0236 55.4174 12.6632V15.2253H55.4215Z" fill="white"/>
<path d="M64.0967 16.1927C62.724 16.1927 61.6924 15.2573 61.6924 13.9743C61.6924 12.6752 62.7445 11.7239 64.1131 11.7239C64.9679 11.7239 65.6995 12.1036 66.1269 12.7631L67.9804 10.9964C67.0886 9.90519 65.6296 9.22968 64.0638 9.22968C61.339 9.22968 59.0786 11.2922 59.0786 13.9943C59.0786 16.6443 61.2691 18.6869 64.0309 18.6869C65.7406 18.6869 67.3599 17.8914 68.3216 16.6443L66.3447 14.9815C65.8762 15.745 65.0584 16.1927 64.0967 16.1927Z" fill="white"/>
<path d="M74.9379 12.8191L78.5875 9.40955L78.5916 9.40555H78.5875H75.4393L71.7364 12.903V8.41027C71.7241 7.07922 70.6144 6 69.2417 6V18.515H71.7364V15.8129L73.1091 14.5299L75.8709 18.515H78.8793L74.9379 12.8191Z" fill="white"/>
<path d="M85.9642 15.5171C85.3601 16.0367 84.9121 16.2965 84.308 16.2965C83.6134 16.2965 83.1326 15.9328 83.1326 15.1893V11.7438C81.7599 11.7438 80.6461 12.823 80.6379 14.158V15.3812C80.6379 17.4077 82.0804 18.6908 84.308 18.6908C85.6601 18.6908 86.5889 18.2071 87.4766 17.3398L85.9642 15.5171Z" fill="white"/>
<path d="M92.6054 9.23364C89.7367 9.23364 87.5996 11.2602 87.5996 13.9622C87.5996 16.6643 89.7367 18.6908 92.6054 18.6908C95.474 18.6908 97.6111 16.6643 97.6111 13.9622C97.6111 11.2602 95.4699 9.23364 92.6054 9.23364ZM92.6054 16.2966C91.1998 16.2966 90.1313 15.2933 90.1313 13.9582C90.1313 12.6232 91.1998 11.6199 92.6054 11.6199C94.0109 11.6199 95.0795 12.6232 95.0795 13.9582C95.0795 15.2933 94.0109 16.2966 92.6054 16.2966Z" fill="white"/>
<path d="M104.786 9.21362C103.397 9.28157 102.045 9.76922 101.244 10.7046V9.40549H98.7491V18.5149H101.244V13.0948C101.868 12.2794 103.915 11.6918 105 11.6559L104.786 9.21362Z" fill="white"/>
<path d="M39.3812 15.5174C38.7771 16.0371 38.3291 16.2969 37.725 16.2969C37.0304 16.2969 36.5496 15.9331 36.5496 15.1897V11.7441C35.1769 11.7441 34.0632 12.8234 34.0549 14.1584V15.3815C34.0549 17.4081 35.4975 18.6911 37.725 18.6911C39.0771 18.6911 40.0059 18.2075 40.8937 17.3401L39.3812 15.5174Z" fill="white"/>
<path d="M36.5496 9.40181V8.44249C36.5413 7.11145 35.4276 6.03223 34.0549 6.03223V9.39781H32V11.7361H34.0549H36.5496H40.2895V9.40181H36.5496Z" fill="white"/>
<path d="M83.1326 9.40562V8.3144C83.0504 7.04732 81.9695 6.04004 80.6461 6.04004H80.6502H80.6379V9.40562H78.583V11.7439H80.6379H83.1326H86.8725V9.40562H83.1326Z" fill="white"/>
<defs>
<clipPath id="clip0_14365_181577">
<rect width="16" height="16" fill="white" transform="translate(4 4)"/>
</clipPath>
</defs>
</svg>
