<svg width="195" height="24" viewBox="0 0 195 24" fill="none" xmlns="http://www.w3.org/2000/svg">
    <path d="M0 3C0 1.34315 1.34315 0 3 0H21C22.6569 0 24 1.34315 24 3V21C24 22.6569 22.6569 24 21 24H3C1.34315 24 0 22.6569 0 21V3Z" fill="white"/>
    <g clip-path="url(#clip0_14141_226707)">
        <path d="M12.3637 4C12.3629 4 12.3622 4 12.3615 4V11.6381H20C19.9993 7.41966 16.5811 4 12.3637 4Z" fill="#020202"/>
        <path d="M4.0022 4C4.00147 4 4.00073 4 4 4V11.6381H11.6386C11.6378 7.41966 8.2196 4 4.0022 4Z" fill="#020202"/>
        <path d="M11.6364 12.3619C11.6371 12.3619 11.6378 12.3619 11.6386 12.3619V20H4C4.00073 15.7816 7.41898 12.3619 11.6364 12.3619Z" fill="#020202"/>
        <path d="M19.9978 12.3619C19.9986 12.3619 19.9993 12.3619 20 12.3619V20H12.3615C12.3622 15.7816 15.7804 12.3619 19.9978 12.3619Z" fill="#020202"/>
    </g>
    <path d="M44.3086 10.7046V9.40549H41.814V18.5149H44.3086V13.0948C44.9333 12.2794 46.98 11.6918 48.065 11.6559L47.8554 9.21362C46.4663 9.28557 45.11 9.76922 44.3086 10.7046Z" fill="white"/>
    <path d="M55.4216 10.2369C54.6572 9.47347 53.7283 9.23364 52.8036 9.23364C50.1692 9.23364 48.1719 11.2442 48.1719 13.9463C48.1719 16.6483 50.1651 18.6908 52.7831 18.6908C53.7982 18.6908 54.7229 18.3791 55.4175 17.6876V18.519H57.9121V9.40552H55.4175V10.2369H55.4216ZM55.4216 15.2253C54.9942 15.8849 54.1393 16.3006 53.1941 16.3006C51.768 16.3006 50.6994 15.2973 50.6994 13.9622C50.6994 12.6272 51.7844 11.6239 53.2105 11.6239C54.1352 11.6239 54.9901 12.0236 55.4175 12.6632V15.2253H55.4216Z" fill="white"/>
    <path d="M64.0967 16.1927C62.724 16.1927 61.6925 15.2573 61.6925 13.9743C61.6925 12.6752 62.7446 11.7239 64.1131 11.7239C64.968 11.7239 65.6995 12.1036 66.1269 12.7631L67.9805 10.9964C67.0886 9.90519 65.6297 9.22968 64.0638 9.22968C61.339 9.22968 59.0786 11.2922 59.0786 13.9943C59.0786 16.6443 61.2691 18.6869 64.0309 18.6869C65.7406 18.6869 67.3599 17.8914 68.3216 16.6443L66.3448 14.9815C65.8762 15.745 65.0584 16.1927 64.0967 16.1927Z" fill="white"/>
    <path d="M74.9379 12.8191L78.5874 9.40955L78.5915 9.40555H78.5874H75.4393L71.7364 12.903V8.41027C71.724 7.07922 70.6144 6 69.2417 6V18.515H71.7364V15.8129L73.109 14.5299L75.8708 18.515H78.8792L74.9379 12.8191Z" fill="white"/>
    <path d="M85.9642 15.5171C85.3601 16.0367 84.9121 16.2965 84.308 16.2965C83.6134 16.2965 83.1326 15.9328 83.1326 15.1893V11.7438C81.7599 11.7438 80.6462 12.823 80.6379 14.158V15.3812C80.6379 17.4077 82.0805 18.6908 84.308 18.6908C85.6601 18.6908 86.5889 18.2071 87.4767 17.3398L85.9642 15.5171Z" fill="white"/>
    <path d="M92.6054 9.23364C89.7367 9.23364 87.5996 11.2602 87.5996 13.9622C87.5996 16.6643 89.7367 18.6908 92.6054 18.6908C95.474 18.6908 97.6111 16.6643 97.6111 13.9622C97.6111 11.2602 95.4699 9.23364 92.6054 9.23364ZM92.6054 16.2966C91.1998 16.2966 90.1312 15.2933 90.1312 13.9582C90.1312 12.6232 91.1998 11.6199 92.6054 11.6199C94.0109 11.6199 95.0795 12.6232 95.0795 13.9582C95.0795 15.2933 94.0109 16.2966 92.6054 16.2966Z" fill="white"/>
    <path d="M104.786 9.21362C103.397 9.28157 102.045 9.76922 101.244 10.7046V9.40549H98.7491V18.5149H101.244V13.0948C101.868 12.2794 103.915 11.6918 105 11.6559L104.786 9.21362Z" fill="white"/>
    <path d="M39.3812 15.5174C38.7771 16.0371 38.3291 16.2969 37.725 16.2969C37.0304 16.2969 36.5496 15.9331 36.5496 15.1897V11.7441C35.1769 11.7441 34.0632 12.8234 34.0549 14.1584V15.3815C34.0549 17.4081 35.4975 18.6911 37.725 18.6911C39.0771 18.6911 40.0059 18.2075 40.8937 17.3401L39.3812 15.5174Z" fill="white"/>
    <path d="M36.5496 9.40181V8.44249C36.5413 7.11145 35.4276 6.03223 34.0549 6.03223V9.39781H32V11.7361H34.0549H36.5496H40.2895V9.40181H36.5496Z" fill="white"/>
    <path d="M83.1326 9.40562V8.3144C83.0504 7.04732 81.9695 6.04004 80.6461 6.04004H80.6502H80.6379V9.40562H78.583V11.7439H80.6379H83.1326H86.8725V9.40562H83.1326Z" fill="white"/>
    <path d="M118.652 9.636V10.524H115.016V13.344H117.968V14.232H115.016V18H113.924V9.636H118.652ZM124.163 18.084C123.387 18.084 122.679 17.904 122.039 17.544C121.399 17.176 120.891 16.668 120.515 16.02C120.147 15.364 119.963 14.628 119.963 13.812C119.963 12.996 120.147 12.264 120.515 11.616C120.891 10.96 121.399 10.452 122.039 10.092C122.679 9.724 123.387 9.54 124.163 9.54C124.947 9.54 125.659 9.724 126.299 10.092C126.939 10.452 127.443 10.956 127.811 11.604C128.179 12.252 128.363 12.988 128.363 13.812C128.363 14.636 128.179 15.372 127.811 16.02C127.443 16.668 126.939 17.176 126.299 17.544C125.659 17.904 124.947 18.084 124.163 18.084ZM124.163 17.136C124.747 17.136 125.271 17 125.735 16.728C126.207 16.456 126.575 16.068 126.839 15.564C127.111 15.06 127.247 14.476 127.247 13.812C127.247 13.14 127.111 12.556 126.839 12.06C126.575 11.556 126.211 11.168 125.747 10.896C125.283 10.624 124.755 10.488 124.163 10.488C123.571 10.488 123.043 10.624 122.579 10.896C122.115 11.168 121.747 11.556 121.475 12.06C121.211 12.556 121.079 13.14 121.079 13.812C121.079 14.476 121.211 15.06 121.475 15.564C121.747 16.068 122.115 16.456 122.579 16.728C123.051 17 123.579 17.136 124.163 17.136ZM131.272 9.636V14.928C131.272 15.672 131.452 16.224 131.812 16.584C132.18 16.944 132.688 17.124 133.336 17.124C133.976 17.124 134.476 16.944 134.836 16.584C135.204 16.224 135.388 15.672 135.388 14.928V9.636H136.48V14.916C136.48 15.612 136.34 16.2 136.06 16.68C135.78 17.152 135.4 17.504 134.92 17.736C134.448 17.968 133.916 18.084 133.324 18.084C132.732 18.084 132.196 17.968 131.716 17.736C131.244 17.504 130.868 17.152 130.588 16.68C130.316 16.2 130.18 15.612 130.18 14.916V9.636H131.272ZM143.106 18L141.114 14.58H139.794V18H138.702V9.636H141.402C142.034 9.636 142.566 9.744 142.998 9.96C143.438 10.176 143.766 10.468 143.982 10.836C144.198 11.204 144.306 11.624 144.306 12.096C144.306 12.672 144.138 13.18 143.802 13.62C143.474 14.06 142.978 14.352 142.314 14.496L144.414 18H143.106ZM139.794 13.704H141.402C141.994 13.704 142.438 13.56 142.734 13.272C143.03 12.976 143.178 12.584 143.178 12.096C143.178 11.6 143.03 11.216 142.734 10.944C142.446 10.672 142.002 10.536 141.402 10.536H139.794V13.704ZM152.979 18H151.887L147.495 11.34V18H146.403V9.624H147.495L151.887 16.272V9.624H152.979V18ZM156.332 9.636V18H155.24V9.636H156.332ZM161.246 18.084C160.694 18.084 160.198 17.988 159.758 17.796C159.326 17.596 158.986 17.324 158.738 16.98C158.49 16.628 158.362 16.224 158.354 15.768H159.518C159.558 16.16 159.718 16.492 159.998 16.764C160.286 17.028 160.702 17.16 161.246 17.16C161.766 17.16 162.174 17.032 162.47 16.776C162.774 16.512 162.926 16.176 162.926 15.768C162.926 15.448 162.838 15.188 162.662 14.988C162.486 14.788 162.266 14.636 162.002 14.532C161.738 14.428 161.382 14.316 160.934 14.196C160.382 14.052 159.938 13.908 159.602 13.764C159.274 13.62 158.99 13.396 158.75 13.092C158.518 12.78 158.402 12.364 158.402 11.844C158.402 11.388 158.518 10.984 158.75 10.632C158.982 10.28 159.306 10.008 159.722 9.816C160.146 9.624 160.63 9.528 161.174 9.528C161.958 9.528 162.598 9.724 163.094 10.116C163.598 10.508 163.882 11.028 163.946 11.676H162.746C162.706 11.356 162.538 11.076 162.242 10.836C161.946 10.588 161.554 10.464 161.066 10.464C160.61 10.464 160.238 10.584 159.95 10.824C159.662 11.056 159.518 11.384 159.518 11.808C159.518 12.112 159.602 12.36 159.77 12.552C159.946 12.744 160.158 12.892 160.406 12.996C160.662 13.092 161.018 13.204 161.474 13.332C162.026 13.484 162.47 13.636 162.806 13.788C163.142 13.932 163.43 14.16 163.67 14.472C163.91 14.776 164.03 15.192 164.03 15.72C164.03 16.128 163.922 16.512 163.706 16.872C163.49 17.232 163.17 17.524 162.746 17.748C162.322 17.972 161.822 18.084 161.246 18.084ZM168.688 18.084C168.136 18.084 167.64 17.988 167.2 17.796C166.768 17.596 166.428 17.324 166.18 16.98C165.932 16.628 165.804 16.224 165.796 15.768H166.96C167 16.16 167.16 16.492 167.44 16.764C167.728 17.028 168.144 17.16 168.688 17.16C169.208 17.16 169.616 17.032 169.912 16.776C170.216 16.512 170.368 16.176 170.368 15.768C170.368 15.448 170.28 15.188 170.104 14.988C169.928 14.788 169.708 14.636 169.444 14.532C169.18 14.428 168.824 14.316 168.376 14.196C167.824 14.052 167.38 13.908 167.044 13.764C166.716 13.62 166.432 13.396 166.192 13.092C165.96 12.78 165.844 12.364 165.844 11.844C165.844 11.388 165.96 10.984 166.192 10.632C166.424 10.28 166.748 10.008 167.164 9.816C167.588 9.624 168.072 9.528 168.616 9.528C169.4 9.528 170.04 9.724 170.536 10.116C171.04 10.508 171.324 11.028 171.388 11.676H170.188C170.148 11.356 169.98 11.076 169.684 10.836C169.388 10.588 168.996 10.464 168.508 10.464C168.052 10.464 167.68 10.584 167.392 10.824C167.104 11.056 166.96 11.384 166.96 11.808C166.96 12.112 167.044 12.36 167.212 12.552C167.388 12.744 167.6 12.892 167.848 12.996C168.104 13.092 168.46 13.204 168.916 13.332C169.468 13.484 169.912 13.636 170.248 13.788C170.584 13.932 170.872 14.16 171.112 14.472C171.352 14.776 171.472 15.192 171.472 15.72C171.472 16.128 171.364 16.512 171.148 16.872C170.932 17.232 170.612 17.524 170.188 17.748C169.764 17.972 169.264 18.084 168.688 18.084ZM174.571 10.524V13.32H177.619V14.22H174.571V17.1H177.979V18H173.479V9.624H177.979V10.524H174.571ZM181.1 9.636V14.928C181.1 15.672 181.28 16.224 181.64 16.584C182.008 16.944 182.516 17.124 183.164 17.124C183.804 17.124 184.304 16.944 184.664 16.584C185.032 16.224 185.216 15.672 185.216 14.928V9.636H186.308V14.916C186.308 15.612 186.168 16.2 185.888 16.68C185.608 17.152 185.228 17.504 184.748 17.736C184.276 17.968 183.744 18.084 183.152 18.084C182.56 18.084 182.024 17.968 181.544 17.736C181.072 17.504 180.696 17.152 180.416 16.68C180.144 16.2 180.008 15.612 180.008 14.916V9.636H181.1ZM192.933 18L190.941 14.58H189.621V18H188.529V9.636H191.229C191.861 9.636 192.393 9.744 192.825 9.96C193.265 10.176 193.593 10.468 193.809 10.836C194.025 11.204 194.133 11.624 194.133 12.096C194.133 12.672 193.965 13.18 193.629 13.62C193.301 14.06 192.805 14.352 192.141 14.496L194.241 18H192.933ZM189.621 13.704H191.229C191.821 13.704 192.265 13.56 192.561 13.272C192.857 12.976 193.005 12.584 193.005 12.096C193.005 11.6 192.857 11.216 192.561 10.944C192.273 10.672 191.829 10.536 191.229 10.536H189.621V13.704Z" fill="#999999"/>
    <defs>
        <clipPath id="clip0_14141_226707">
            <rect width="16" height="16" fill="white" transform="translate(4 4)"/>
        </clipPath>
    </defs>
</svg>
