<svg width="147" height="44" viewBox="0 0 147 44" fill="none" xmlns="http://www.w3.org/2000/svg">
<g clip-path="url(#clip0_12928_201858)">
<path d="M45.8141 9.78482V7.63522H41.6862V22.7089H45.8141V13.7401C46.8478 12.3908 50.2345 11.4185 52.0299 11.359L51.6831 7.31774C49.3845 7.43679 47.1403 8.23711 45.8141 9.78482Z" fill="white"/>
<path d="M64.203 9.01105C62.9381 7.74775 61.4012 7.3509 59.871 7.3509C55.5118 7.3509 52.2067 10.6778 52.2067 15.149C52.2067 19.6202 55.505 23 59.837 23C61.5168 23 63.0469 22.4841 64.1962 21.3398V22.7156H68.3242V7.63531H64.1962V9.01105H64.203ZM64.203 17.2655C63.4958 18.3569 62.0812 19.0447 60.5171 19.0447C58.1573 19.0447 56.3891 17.3846 56.3891 15.1754C56.3891 12.9663 58.1845 11.3062 60.5443 11.3062C62.0744 11.3062 63.489 11.9676 64.1962 13.0258V17.2655H64.203Z" fill="white"/>
<path d="M78.558 18.866C76.2866 18.866 74.5797 17.3183 74.5797 15.1952C74.5797 13.0456 76.3206 11.4714 78.5852 11.4714C79.9997 11.4714 81.2103 12.0998 81.9175 13.1911L84.9846 10.2676C83.5089 8.46198 81.0946 7.34419 78.5036 7.34419C73.9948 7.34419 70.2545 10.7571 70.2545 15.2283C70.2545 19.6134 73.8792 22.9933 78.4492 22.9933C81.2783 22.9933 83.9577 21.6771 85.5491 19.6134L82.278 16.862C81.5027 18.1253 80.1494 18.866 78.558 18.866Z" fill="white"/>
<path d="M96.4974 13.2838L102.536 7.64188L102.543 7.63526H102.536H97.327L91.1997 13.4226V5.98834C91.1793 3.78582 89.3431 2 87.0717 2V22.7089H91.1997V18.2378L93.4711 16.1146L98.0411 22.7089H103.019L96.4974 13.2838Z" fill="white"/>
<path d="M114.743 17.7482C113.743 18.6081 113.002 19.038 112.002 19.038C110.853 19.038 110.057 18.4361 110.057 17.2059V11.5045C107.786 11.5045 105.943 13.2903 105.929 15.4994V17.5233C105.929 20.8767 108.316 22.9999 112.002 22.9999C114.239 22.9999 115.776 22.1995 117.245 20.7643L114.743 17.7482Z" fill="white"/>
<path d="M125.732 7.3509C120.985 7.3509 117.449 10.7043 117.449 15.1754C117.449 19.6466 120.985 23 125.732 23C130.479 23 134.015 19.6466 134.015 15.1754C134.015 10.7043 130.472 7.3509 125.732 7.3509ZM125.732 19.0381C123.406 19.0381 121.638 17.378 121.638 15.1688C121.638 12.9597 123.406 11.2996 125.732 11.2996C128.058 11.2996 129.826 12.9597 129.826 15.1688C129.826 17.378 128.058 19.0381 125.732 19.0381Z" fill="white"/>
<path d="M145.888 7.31774C143.59 7.43018 141.352 8.23711 140.026 9.78482V7.63522H135.898V22.7089H140.026V13.7401C141.06 12.3908 144.447 11.4185 146.242 11.359L145.888 7.31774Z" fill="white"/>
<path d="M37.6608 17.7482C36.6611 18.6081 35.9198 19.038 34.9201 19.038C33.7708 19.038 32.9751 18.4361 32.9751 17.2059V11.5045C30.7037 11.5045 28.8608 13.2903 28.8472 15.4994V17.5233C28.8472 20.8767 31.2342 22.9999 34.9201 22.9999C37.1575 22.9999 38.6945 22.1995 40.1634 20.7643L37.6608 17.7482Z" fill="white"/>
<path d="M32.9752 7.62862V6.04122C32.9616 3.83871 31.1187 2.05289 28.8473 2.05289V7.62201H25.447V11.4913H28.8473H32.9752H39.1638V7.62862H32.9752Z" fill="white"/>
<path d="M110.057 7.63522V5.82956C109.921 3.73287 108.133 2.0661 105.943 2.0661H105.95H105.929V7.63522H102.529V11.5045H105.929H110.057H116.246V7.63522H110.057Z" fill="white"/>
<path d="M11.1054 2.06609V11.9278H21.2451C21.2451 6.47773 16.7023 2.06609 11.1054 2.06609Z" fill="#FFA726"/>
<path d="M0 2.06609V11.9278H10.1397C10.1397 6.47773 5.60371 2.06609 0 2.06609Z" fill="#FFA726"/>
<path d="M10.1397 12.8604V22.7221H0C0 17.2721 4.54281 12.8604 10.1397 12.8604Z" fill="#FFA726"/>
<path d="M21.2383 12.8604C21.2383 12.8604 21.2451 12.8604 21.2383 12.8604V22.7221H11.0986C11.0986 17.2721 15.6414 12.8604 21.2383 12.8604Z" fill="#FFA726"/>
<path d="M101.576 38.084C101.024 38.084 100.528 37.988 100.088 37.796C99.656 37.596 99.316 37.324 99.068 36.98C98.82 36.628 98.692 36.224 98.684 35.768H99.848C99.888 36.16 100.048 36.492 100.328 36.764C100.616 37.028 101.032 37.16 101.576 37.16C102.096 37.16 102.504 37.032 102.8 36.776C103.104 36.512 103.256 36.176 103.256 35.768C103.256 35.448 103.168 35.188 102.992 34.988C102.816 34.788 102.596 34.636 102.332 34.532C102.068 34.428 101.712 34.316 101.264 34.196C100.712 34.052 100.268 33.908 99.932 33.764C99.604 33.62 99.32 33.396 99.08 33.092C98.848 32.78 98.732 32.364 98.732 31.844C98.732 31.388 98.848 30.984 99.08 30.632C99.312 30.28 99.636 30.008 100.052 29.816C100.476 29.624 100.96 29.528 101.504 29.528C102.288 29.528 102.928 29.724 103.424 30.116C103.928 30.508 104.212 31.028 104.276 31.676H103.076C103.036 31.356 102.868 31.076 102.572 30.836C102.276 30.588 101.884 30.464 101.396 30.464C100.94 30.464 100.568 30.584 100.28 30.824C99.992 31.056 99.848 31.384 99.848 31.808C99.848 32.112 99.932 32.36 100.1 32.552C100.276 32.744 100.488 32.892 100.736 32.996C100.992 33.092 101.348 33.204 101.804 33.332C102.356 33.484 102.8 33.636 103.136 33.788C103.472 33.932 103.76 34.16 104 34.472C104.24 34.776 104.36 35.192 104.36 35.72C104.36 36.128 104.252 36.512 104.036 36.872C103.82 37.232 103.5 37.524 103.076 37.748C102.652 37.972 102.152 38.084 101.576 38.084ZM111.799 31.424V38H110.707V37.028C110.499 37.364 110.207 37.628 109.831 37.82C109.463 38.004 109.055 38.096 108.607 38.096C108.095 38.096 107.635 37.992 107.227 37.784C106.819 37.568 106.495 37.248 106.255 36.824C106.023 36.4 105.907 35.884 105.907 35.276V31.424H106.987V35.132C106.987 35.78 107.151 36.28 107.479 36.632C107.807 36.976 108.255 37.148 108.823 37.148C109.407 37.148 109.867 36.968 110.203 36.608C110.539 36.248 110.707 35.724 110.707 35.036V31.424H111.799ZM114.735 32.636C114.951 32.26 115.271 31.948 115.695 31.7C116.127 31.444 116.627 31.316 117.195 31.316C117.779 31.316 118.307 31.456 118.779 31.736C119.259 32.016 119.635 32.412 119.907 32.924C120.179 33.428 120.315 34.016 120.315 34.688C120.315 35.352 120.179 35.944 119.907 36.464C119.635 36.984 119.259 37.388 118.779 37.676C118.307 37.964 117.779 38.108 117.195 38.108C116.635 38.108 116.139 37.984 115.707 37.736C115.283 37.48 114.959 37.164 114.735 36.788V41.12H113.643V31.424H114.735V32.636ZM119.199 34.688C119.199 34.192 119.099 33.76 118.899 33.392C118.699 33.024 118.427 32.744 118.083 32.552C117.747 32.36 117.375 32.264 116.967 32.264C116.567 32.264 116.195 32.364 115.851 32.564C115.515 32.756 115.243 33.04 115.035 33.416C114.835 33.784 114.735 34.212 114.735 34.7C114.735 35.196 114.835 35.632 115.035 36.008C115.243 36.376 115.515 36.66 115.851 36.86C116.195 37.052 116.567 37.148 116.967 37.148C117.375 37.148 117.747 37.052 118.083 36.86C118.427 36.66 118.699 36.376 118.899 36.008C119.099 35.632 119.199 35.192 119.199 34.688ZM122.844 32.636C123.06 32.26 123.38 31.948 123.804 31.7C124.236 31.444 124.736 31.316 125.304 31.316C125.888 31.316 126.416 31.456 126.888 31.736C127.368 32.016 127.744 32.412 128.016 32.924C128.288 33.428 128.424 34.016 128.424 34.688C128.424 35.352 128.288 35.944 128.016 36.464C127.744 36.984 127.368 37.388 126.888 37.676C126.416 37.964 125.888 38.108 125.304 38.108C124.744 38.108 124.248 37.984 123.816 37.736C123.392 37.48 123.068 37.164 122.844 36.788V41.12H121.752V31.424H122.844V32.636ZM127.308 34.688C127.308 34.192 127.208 33.76 127.008 33.392C126.808 33.024 126.536 32.744 126.192 32.552C125.856 32.36 125.484 32.264 125.076 32.264C124.676 32.264 124.304 32.364 123.96 32.564C123.624 32.756 123.352 33.04 123.144 33.416C122.944 33.784 122.844 34.212 122.844 34.7C122.844 35.196 122.944 35.632 123.144 36.008C123.352 36.376 123.624 36.66 123.96 36.86C124.304 37.052 124.676 37.148 125.076 37.148C125.484 37.148 125.856 37.052 126.192 36.86C126.536 36.66 126.808 36.376 127.008 36.008C127.208 35.632 127.308 35.192 127.308 34.688ZM130.954 29.12V38H129.862V29.12H130.954ZM133.379 30.356C133.171 30.356 132.995 30.284 132.851 30.14C132.707 29.996 132.635 29.82 132.635 29.612C132.635 29.404 132.707 29.228 132.851 29.084C132.995 28.94 133.171 28.868 133.379 28.868C133.579 28.868 133.747 28.94 133.883 29.084C134.027 29.228 134.099 29.404 134.099 29.612C134.099 29.82 134.027 29.996 133.883 30.14C133.747 30.284 133.579 30.356 133.379 30.356ZM133.907 31.424V38H132.815V31.424H133.907ZM141.768 34.46C141.768 34.668 141.756 34.888 141.732 35.12H136.476C136.516 35.768 136.736 36.276 137.136 36.644C137.544 37.004 138.036 37.184 138.612 37.184C139.084 37.184 139.476 37.076 139.788 36.86C140.108 36.636 140.332 36.34 140.46 35.972H141.636C141.46 36.604 141.108 37.12 140.58 37.52C140.052 37.912 139.396 38.108 138.612 38.108C137.988 38.108 137.428 37.968 136.932 37.688C136.444 37.408 136.06 37.012 135.78 36.5C135.5 35.98 135.36 35.38 135.36 34.7C135.36 34.02 135.496 33.424 135.768 32.912C136.04 32.4 136.42 32.008 136.908 31.736C137.404 31.456 137.972 31.316 138.612 31.316C139.236 31.316 139.788 31.452 140.268 31.724C140.748 31.996 141.116 32.372 141.372 32.852C141.636 33.324 141.768 33.86 141.768 34.46ZM140.64 34.232C140.64 33.816 140.548 33.46 140.364 33.164C140.18 32.86 139.928 32.632 139.608 32.48C139.296 32.32 138.948 32.24 138.564 32.24C138.012 32.24 137.54 32.416 137.148 32.768C136.764 33.12 136.544 33.608 136.488 34.232H140.64ZM144.301 32.492C144.493 32.116 144.765 31.824 145.117 31.616C145.477 31.408 145.913 31.304 146.425 31.304V32.432H146.137C144.913 32.432 144.301 33.096 144.301 34.424V38H143.209V31.424H144.301V32.492Z" fill="#FFA726"/>
</g>
<defs>
<clipPath id="clip0_12928_201858">
<rect width="147" height="44" fill="white"/>
</clipPath>
</defs>
</svg>
