<svg width="147" height="44" viewBox="0 0 147 44" fill="none" xmlns="http://www.w3.org/2000/svg">
<g clip-path="url(#clip0_12018_69701)">
<path d="M45.8141 9.78482V7.63522H41.6861V22.7089H45.8141V13.7401C46.8478 12.3908 50.2345 11.4185 52.0299 11.359L51.683 7.31774C49.3844 7.43679 47.1402 8.23711 45.8141 9.78482Z" fill="white"/>
<path d="M64.203 9.01105C62.9381 7.74775 61.4011 7.3509 59.871 7.3509C55.5118 7.3509 52.2067 10.6778 52.2067 15.149C52.2067 19.6202 55.505 23 59.837 23C61.5167 23 63.0469 22.4841 64.1962 21.3398V22.7156H68.3242V7.63531H64.1962V9.01105H64.203ZM64.203 17.2655C63.4957 18.3569 62.0812 19.0447 60.5171 19.0447C58.1572 19.0447 56.3891 17.3846 56.3891 15.1754C56.3891 12.9663 58.1844 11.3062 60.5443 11.3062C62.0744 11.3062 63.4889 11.9676 64.1962 13.0258V17.2655H64.203Z" fill="white"/>
<path d="M78.558 18.866C76.2866 18.866 74.5796 17.3183 74.5796 15.1952C74.5796 13.0456 76.3206 11.4714 78.5852 11.4714C79.9997 11.4714 81.2102 12.0998 81.9175 13.1911L84.9846 10.2676C83.5088 8.46198 81.0946 7.34419 78.5036 7.34419C73.9948 7.34419 70.2544 10.7571 70.2544 15.2283C70.2544 19.6134 73.8792 22.9933 78.4492 22.9933C81.2782 22.9933 83.9577 21.6771 85.549 19.6134L82.2779 16.862C81.5027 18.1253 80.1493 18.866 78.558 18.866Z" fill="white"/>
<path d="M96.4974 13.2838L102.536 7.64188L102.543 7.63526H102.536H97.327L91.1997 13.4226V5.98834C91.1793 3.78582 89.3431 2 87.0717 2V22.7089H91.1997V18.2378L93.4711 16.1146L98.0411 22.7089H103.019L96.4974 13.2838Z" fill="white"/>
<path d="M114.743 17.7482C113.743 18.6081 113.002 19.038 112.002 19.038C110.853 19.038 110.057 18.4361 110.057 17.2059V11.5045C107.786 11.5045 105.943 13.2903 105.929 15.4994V17.5233C105.929 20.8767 108.316 22.9999 112.002 22.9999C114.239 22.9999 115.776 22.1995 117.245 20.7643L114.743 17.7482Z" fill="white"/>
<path d="M125.732 7.3509C120.985 7.3509 117.449 10.7043 117.449 15.1754C117.449 19.6466 120.985 23 125.732 23C130.479 23 134.015 19.6466 134.015 15.1754C134.015 10.7043 130.472 7.3509 125.732 7.3509ZM125.732 19.0381C123.406 19.0381 121.638 17.378 121.638 15.1688C121.638 12.9597 123.406 11.2996 125.732 11.2996C128.058 11.2996 129.826 12.9597 129.826 15.1688C129.826 17.378 128.058 19.0381 125.732 19.0381Z" fill="white"/>
<path d="M145.888 7.31774C143.59 7.43018 141.352 8.23711 140.026 9.78482V7.63522H135.898V22.7089H140.026V13.7401C141.06 12.3908 144.447 11.4185 146.242 11.359L145.888 7.31774Z" fill="white"/>
<path d="M37.6608 17.7482C36.6611 18.6081 35.9198 19.038 34.9201 19.038C33.7708 19.038 32.9751 18.4361 32.9751 17.2059V11.5045C30.7037 11.5045 28.8608 13.2903 28.8472 15.4994V17.5233C28.8472 20.8767 31.2342 22.9999 34.9201 22.9999C37.1575 22.9999 38.6945 22.1995 40.1634 20.7643L37.6608 17.7482Z" fill="white"/>
<path d="M32.9752 7.62862V6.04122C32.9616 3.83871 31.1187 2.05289 28.8473 2.05289V7.62201H25.447V11.4913H28.8473H32.9752H39.1638V7.62862H32.9752Z" fill="white"/>
<path d="M110.057 7.63522V5.82956C109.921 3.73287 108.133 2.0661 105.943 2.0661H105.95H105.929V7.63522H102.529V11.5045H105.929H110.057H116.246V7.63522H110.057Z" fill="white"/>
<path d="M11.1054 2.06609V11.9278H21.2451C21.2451 6.47773 16.7023 2.06609 11.1054 2.06609Z" fill="#9965F4"/>
<path d="M0 2.06609V11.9278H10.1397C10.1397 6.47773 5.60371 2.06609 0 2.06609Z" fill="#9965F4"/>
<path d="M10.1397 12.8604V22.7221H0C0 17.2721 4.54281 12.8604 10.1397 12.8604Z" fill="#9965F4"/>
<path d="M21.2383 12.8604C21.2383 12.8604 21.2451 12.8604 21.2383 12.8604V22.7221H11.0986C11.0986 17.2721 15.6414 12.8604 21.2383 12.8604Z" fill="#9965F4"/>
<path d="M63.6 29.684C64.536 29.684 65.248 29.912 65.736 30.368C66.232 30.824 66.48 31.408 66.48 32.12C66.48 32.832 66.24 33.42 65.76 33.884C65.288 34.34 64.568 34.568 63.6 34.568H61.992V38H60.9V29.684H63.6ZM61.992 33.704H63.6C64.2 33.704 64.644 33.568 64.932 33.296C65.228 33.016 65.376 32.628 65.376 32.132C65.376 31.084 64.784 30.56 63.6 30.56H61.992V33.704ZM68.9295 31.412V32.528C69.3215 31.712 69.9895 31.304 70.9335 31.304V32.444H70.6455C70.0855 32.444 69.6575 32.592 69.3615 32.888C69.0735 33.176 68.9295 33.68 68.9295 34.4V38H67.8375V31.412H68.9295ZM73.3355 30.14C73.1915 30.284 73.0155 30.356 72.8075 30.356C72.5995 30.356 72.4235 30.284 72.2795 30.14C72.1435 29.996 72.0755 29.82 72.0755 29.612C72.0755 29.404 72.1475 29.228 72.2915 29.084C72.4355 28.94 72.6075 28.868 72.8075 28.868C73.0155 28.868 73.1915 28.94 73.3355 29.084C73.4795 29.228 73.5515 29.404 73.5515 29.612C73.5515 29.82 73.4795 29.996 73.3355 30.14ZM72.2555 38V31.412H73.3475V38H72.2555ZM77.91 38.108C76.966 38.108 76.198 37.796 75.606 37.172C75.014 36.548 74.718 35.728 74.718 34.712C74.718 33.688 75.014 32.864 75.606 32.24C76.198 31.616 76.966 31.304 77.91 31.304C78.702 31.304 79.346 31.488 79.842 31.856C80.346 32.224 80.698 32.748 80.898 33.428H79.722C79.594 33.044 79.374 32.744 79.062 32.528C78.75 32.312 78.366 32.204 77.91 32.204C77.286 32.204 76.782 32.424 76.398 32.864C76.022 33.296 75.834 33.912 75.834 34.712C75.834 35.504 76.022 36.12 76.398 36.56C76.782 36.992 77.286 37.208 77.91 37.208C78.846 37.208 79.45 36.8 79.722 35.984H80.898C80.698 36.632 80.342 37.148 79.83 37.532C79.326 37.916 78.686 38.108 77.91 38.108ZM83.4253 30.14C83.2813 30.284 83.1053 30.356 82.8973 30.356C82.6893 30.356 82.5133 30.284 82.3693 30.14C82.2333 29.996 82.1653 29.82 82.1653 29.612C82.1653 29.404 82.2373 29.228 82.3813 29.084C82.5253 28.94 82.6973 28.868 82.8973 28.868C83.1053 28.868 83.2813 28.94 83.4253 29.084C83.5693 29.228 83.6413 29.404 83.6413 29.612C83.6413 29.82 83.5693 29.996 83.4253 30.14ZM82.3453 38V31.412H83.4373V38H82.3453ZM86.3318 31.412V32.48C86.7798 31.696 87.4958 31.304 88.4798 31.304C89.2078 31.304 89.8158 31.548 90.3038 32.036C90.7918 32.516 91.0358 33.204 91.0358 34.1V38H89.9558V34.28C89.9558 33.616 89.7958 33.112 89.4758 32.768C89.1558 32.424 88.7118 32.252 88.1438 32.252C87.5838 32.252 87.1398 32.424 86.8118 32.768C86.4918 33.112 86.3318 33.616 86.3318 34.28V38H85.2398V31.412H86.3318ZM95.487 38.108C94.591 38.108 93.843 37.788 93.243 37.148C92.643 36.5 92.343 35.676 92.343 34.676C92.343 33.668 92.639 32.856 93.231 32.24C93.831 31.616 94.583 31.304 95.487 31.304C96.047 31.304 96.535 31.436 96.951 31.7C97.375 31.964 97.695 32.308 97.911 32.732V31.412H99.015V38.168C99.015 39.072 98.723 39.808 98.139 40.376C97.555 40.952 96.815 41.24 95.919 41.24C95.023 41.24 94.279 41.032 93.687 40.616C93.103 40.2 92.771 39.656 92.691 38.984H93.759C93.863 39.36 94.107 39.672 94.491 39.92C94.875 40.168 95.351 40.292 95.919 40.292C96.487 40.292 96.959 40.104 97.335 39.728C97.719 39.36 97.911 38.84 97.911 38.168V36.656C97.695 37.088 97.375 37.44 96.951 37.712C96.535 37.976 96.047 38.108 95.487 38.108ZM97.251 36.5C97.691 36.052 97.911 35.456 97.911 34.712C97.911 33.968 97.691 33.372 97.251 32.924C96.819 32.476 96.295 32.252 95.679 32.252C95.071 32.252 94.547 32.468 94.107 32.9C93.675 33.332 93.459 33.92 93.459 34.664C93.459 35.408 93.679 36.012 94.119 36.476C94.559 36.94 95.083 37.172 95.691 37.172C96.299 37.172 96.819 36.948 97.251 36.5ZM105.3 31.904C105.3 32.208 105.384 32.46 105.552 32.66C105.72 32.86 105.936 33.008 106.2 33.104C106.464 33.2 106.756 33.284 107.076 33.356C107.404 33.428 107.728 33.512 108.048 33.608C108.376 33.696 108.672 33.812 108.936 33.956C109.2 34.1 109.416 34.316 109.584 34.604C109.752 34.892 109.836 35.248 109.836 35.672C109.836 36.32 109.588 36.884 109.092 37.364C108.596 37.844 107.924 38.084 107.076 38.084C106.236 38.084 105.552 37.892 105.024 37.508C104.496 37.116 104.232 36.588 104.232 35.924H105.396C105.428 36.3 105.576 36.604 105.84 36.836C106.112 37.068 106.512 37.184 107.04 37.184C107.568 37.184 107.988 37.048 108.3 36.776C108.612 36.504 108.768 36.188 108.768 35.828C108.768 35.46 108.684 35.18 108.516 34.988C108.348 34.788 108.132 34.64 107.868 34.544C107.604 34.448 107.308 34.368 106.98 34.304C106.66 34.232 106.336 34.148 106.008 34.052C105.688 33.956 105.396 33.836 105.132 33.692C104.868 33.54 104.652 33.32 104.484 33.032C104.316 32.736 104.232 32.372 104.232 31.94C104.232 31.236 104.48 30.672 104.976 30.248C105.48 29.816 106.132 29.6 106.932 29.6C107.74 29.6 108.38 29.788 108.852 30.164C109.332 30.532 109.608 31.044 109.68 31.7H108.468C108.436 31.372 108.28 31.092 108 30.86C107.728 30.628 107.356 30.512 106.884 30.512C106.42 30.512 106.04 30.632 105.744 30.872C105.448 31.104 105.3 31.448 105.3 31.904ZM114.215 38.108C113.271 38.108 112.503 37.796 111.911 37.172C111.319 36.548 111.023 35.724 111.023 34.7C111.023 33.676 111.323 32.856 111.923 32.24C112.523 31.616 113.299 31.304 114.251 31.304C115.211 31.304 115.979 31.6 116.555 32.192C117.139 32.776 117.431 33.524 117.431 34.436C117.431 34.668 117.415 34.884 117.383 35.084H112.139C112.171 35.74 112.375 36.26 112.751 36.644C113.135 37.02 113.623 37.208 114.215 37.208C114.663 37.208 115.039 37.108 115.343 36.908C115.655 36.708 115.883 36.444 116.027 36.116H117.203C116.995 36.692 116.635 37.168 116.123 37.544C115.619 37.92 114.983 38.108 114.215 38.108ZM116.291 34.292C116.283 33.66 116.083 33.156 115.691 32.78C115.299 32.396 114.811 32.204 114.227 32.204C113.651 32.204 113.171 32.392 112.787 32.768C112.403 33.136 112.191 33.644 112.151 34.292H116.291ZM119.883 31.412V32.528C120.275 31.712 120.943 31.304 121.887 31.304V32.444H121.599C121.039 32.444 120.611 32.592 120.315 32.888C120.027 33.176 119.883 33.68 119.883 34.4V38H118.791V31.412H119.883ZM122.453 31.412H123.617L125.633 36.98L127.661 31.412H128.837L126.257 38H125.021L122.453 31.412ZM130.957 30.14C130.813 30.284 130.637 30.356 130.429 30.356C130.221 30.356 130.045 30.284 129.901 30.14C129.765 29.996 129.697 29.82 129.697 29.612C129.697 29.404 129.769 29.228 129.913 29.084C130.057 28.94 130.229 28.868 130.429 28.868C130.637 28.868 130.813 28.94 130.957 29.084C131.101 29.228 131.173 29.404 131.173 29.612C131.173 29.82 131.101 29.996 130.957 30.14ZM129.877 38V31.412H130.969V38H129.877ZM135.531 38.108C134.587 38.108 133.819 37.796 133.227 37.172C132.635 36.548 132.339 35.728 132.339 34.712C132.339 33.688 132.635 32.864 133.227 32.24C133.819 31.616 134.587 31.304 135.531 31.304C136.323 31.304 136.967 31.488 137.463 31.856C137.967 32.224 138.319 32.748 138.519 33.428H137.343C137.215 33.044 136.995 32.744 136.683 32.528C136.371 32.312 135.987 32.204 135.531 32.204C134.907 32.204 134.403 32.424 134.019 32.864C133.643 33.296 133.455 33.912 133.455 34.712C133.455 35.504 133.643 36.12 134.019 36.56C134.403 36.992 134.907 37.208 135.531 37.208C136.467 37.208 137.071 36.8 137.343 35.984H138.519C138.319 36.632 137.963 37.148 137.451 37.532C136.947 37.916 136.307 38.108 135.531 38.108ZM142.726 38.108C141.782 38.108 141.014 37.796 140.422 37.172C139.83 36.548 139.534 35.724 139.534 34.7C139.534 33.676 139.834 32.856 140.434 32.24C141.034 31.616 141.81 31.304 142.762 31.304C143.722 31.304 144.49 31.6 145.066 32.192C145.65 32.776 145.942 33.524 145.942 34.436C145.942 34.668 145.926 34.884 145.894 35.084H140.65C140.682 35.74 140.886 36.26 141.262 36.644C141.646 37.02 142.134 37.208 142.726 37.208C143.174 37.208 143.55 37.108 143.854 36.908C144.166 36.708 144.394 36.444 144.538 36.116H145.714C145.506 36.692 145.146 37.168 144.634 37.544C144.13 37.92 143.494 38.108 142.726 38.108ZM144.802 34.292C144.794 33.66 144.594 33.156 144.202 32.78C143.81 32.396 143.322 32.204 142.738 32.204C142.162 32.204 141.682 32.392 141.298 32.768C140.914 33.136 140.702 33.644 140.662 34.292H144.802Z" fill="#9965F4"/>
</g>
<defs>
<clipPath id="clip0_12018_69701">
<rect width="147" height="44" fill="white"/>
</clipPath>
</defs>
</svg>
